<?xml version="1.0" encoding="UTF-8" standalone="no"?>
<!DOCTYPE svg PUBLIC "-//W3C//DTD SVG 1.1//EN"
 "http://www.w3.org/Graphics/SVG/1.1/DTD/svg11.dtd">
<!-- Generated by graphviz version 12.2.1 (20241206.2353)
 -->
<!-- Title: G Pages: 1 -->
<svg width="1085pt" height="206pt"
 viewBox="0.00 0.00 1085.25 206.00" xmlns="http://www.w3.org/2000/svg" xmlns:xlink="http://www.w3.org/1999/xlink">
<g id="graph0" class="graph" transform="scale(1 1) rotate(0) translate(4 202)">
<title>G</title>
<polygon fill="white" stroke="none" points="-4,4 -4,-202 1081.25,-202 1081.25,4 -4,4"/>
<!-- data.aws_ami.amazon_linux -->
<g id="node1" class="node">
<title>data.aws_ami.amazon_linux</title>
<polygon fill="none" stroke="black" points="840.75,-198 653,-198 653,-162 840.75,-162 840.75,-198"/>
<text text-anchor="middle" x="746.88" y="-174.2" font-family="sans-serif" font-size="14.00">data.aws_ami.amazon_linux</text>
</g>
<!-- data.aws_iam_policy_document.ec2_assume_role -->
<g id="node2" class="node">
<title>data.aws_iam_policy_document.ec2_assume_role</title>
<polygon fill="none" stroke="black" points="320.5,-117 0,-117 0,-81 320.5,-81 320.5,-117"/>
<text text-anchor="middle" x="160.25" y="-93.2" font-family="sans-serif" font-size="14.00">data.aws_iam_policy_document.ec2_assume_role</text>
</g>
<!-- aws_iam_instance_profile.instance_web -->
<g id="node3" class="node">
<title>aws_iam_instance_profile.instance_web</title>
<polygon fill="none" stroke="black" points="876,-144 617.75,-144 617.75,-108 876,-108 876,-144"/>
<text text-anchor="middle" x="746.88" y="-120.2" font-family="sans-serif" font-size="14.00">aws_iam_instance_profile.instance_web</text>
</g>
<!-- aws_iam_role.instance_web -->
<g id="node4" class="node">
<title>aws_iam_role.instance_web</title>
<polygon fill="none" stroke="black" points="542.75,-117 356.5,-117 356.5,-81 542.75,-81 542.75,-117"/>
<text text-anchor="middle" x="449.62" y="-93.2" font-family="sans-serif" font-size="14.00">aws_iam_role.instance_web</text>
</g>
<!-- aws_iam_instance_profile.instance_web&#45;&gt;aws_iam_role.instance_web -->
<g id="edge1" class="edge">
<title>aws_iam_instance_profile.instance_web&#45;&gt;aws_iam_role.instance_web</title>
<path fill="none" stroke="black" d="M617.66,-114.28C596.52,-112.34 574.84,-110.36 554.39,-108.49"/>
<polygon fill="black" stroke="black" points="554.96,-105.03 544.68,-107.6 554.32,-112 554.96,-105.03"/>
</g>
<!-- aws_iam_role.instance_web&#45;&gt;data.aws_iam_policy_document.ec2_assume_role -->
<g id="edge2" class="edge">
<title>aws_iam_role.instance_web&#45;&gt;data.aws_iam_policy_document.ec2_assume_role</title>
<path fill="none" stroke="black" d="M356.12,-99C348.28,-99 340.2,-99 332.01,-99"/>
<polygon fill="black" stroke="black" points="332.28,-95.5 322.28,-99 332.28,-102.5 332.28,-95.5"/>
</g>
<!-- aws_iam_role_policy_attachment.instance_web_ssm -->
<g id="node5" class="node">
<title>aws_iam_role_policy_attachment.instance_web_ssm</title>
<polygon fill="none" stroke="black" points="915,-90 578.75,-90 578.75,-54 915,-54 915,-90"/>
<text text-anchor="middle" x="746.88" y="-66.2" font-family="sans-serif" font-size="14.00">aws_iam_role_policy_attachment.instance_web_ssm</text>
</g>
<!-- aws_iam_role_policy_attachment.instance_web_ssm&#45;&gt;aws_iam_role.instance_web -->
<g id="edge3" class="edge">
<title>aws_iam_role_policy_attachment.instance_web_ssm&#45;&gt;aws_iam_role.instance_web</title>
<path fill="none" stroke="black" d="M578.41,-87.31C570.28,-88.06 562.23,-88.79 554.36,-89.51"/>
<polygon fill="black" stroke="black" points="554.12,-86.02 544.48,-90.42 554.76,-92.99 554.12,-86.02"/>
</g>
<!-- aws_instance.web -->
<g id="node6" class="node">
<title>aws_instance.web</title>
<polygon fill="none" stroke="black" points="1077.25,-117 951,-117 951,-81 1077.25,-81 1077.25,-117"/>
<text text-anchor="middle" x="1014.12" y="-93.2" font-family="sans-serif" font-size="14.00">aws_instance.web</text>
</g>
<!-- aws_instance.web&#45;&gt;data.aws_ami.amazon_linux -->
<g id="edge4" class="edge">
<title>aws_instance.web&#45;&gt;data.aws_ami.amazon_linux</title>
<path fill="none" stroke="black" d="M985.97,-117.27C966.9,-129.25 940.37,-144.26 915,-153 895.21,-159.81 873.5,-164.93 852.47,-168.76"/>
<polygon fill="black" stroke="black" points="851.97,-165.29 842.71,-170.44 853.16,-172.19 851.97,-165.29"/>
</g>
<!-- aws_instance.web&#45;&gt;aws_iam_instance_profile.instance_web -->
<g id="edge5" class="edge">
<title>aws_instance.web&#45;&gt;aws_iam_instance_profile.instance_web</title>
<path fill="none" stroke="black" d="M950.6,-105.36C931.47,-107.31 909.61,-109.54 887.49,-111.79"/>
<polygon fill="black" stroke="black" points="887.37,-108.28 877.77,-112.78 888.08,-115.25 887.37,-108.28"/>
</g>
<!-- aws_instance.web&#45;&gt;aws_iam_role_policy_attachment.instance_web_ssm -->
<g id="edge6" class="edge">
<title>aws_instance.web&#45;&gt;aws_iam_role_policy_attachment.instance_web_ssm</title>
<path fill="none" stroke="black" d="M950.6,-92.64C942.93,-91.86 934.83,-91.03 926.44,-90.18"/>
<polygon fill="black" stroke="black" points="927.08,-86.72 916.77,-89.19 926.37,-93.69 927.08,-86.72"/>
</g>
<!-- aws_security_group.instance_web -->
<g id="node7" class="node">
<title>aws_security_group.instance_web</title>
<polygon fill="none" stroke="black" points="858,-36 635.75,-36 635.75,0 858,0 858,-36"/>
<text text-anchor="middle" x="746.88" y="-12.2" font-family="sans-serif" font-size="14.00">aws_security_group.instance_web</text>
</g>
<!-- aws_instance.web&#45;&gt;aws_security_group.instance_web -->
<g id="edge7" class="edge">
<title>aws_instance.web&#45;&gt;aws_security_group.instance_web</title>
<path fill="none" stroke="black" d="M985.97,-80.73C966.9,-68.75 940.37,-53.74 915,-45 900.58,-40.03 885.13,-35.97 869.67,-32.65"/>
<polygon fill="black" stroke="black" points="870.41,-29.23 859.91,-30.66 869.01,-36.09 870.41,-29.23"/>
</g>
</g>
</svg>
