<?xml version="1.0" encoding="UTF-8" standalone="no"?>
<!DOCTYPE svg PUBLIC "-//W3C//DTD SVG 1.1//EN"
 "http://www.w3.org/Graphics/SVG/1.1/DTD/svg11.dtd">
<!-- Generated by graphviz version 12.2.1 (20241206.2353)
 -->
<!-- Title: G Pages: 1 -->
<svg width="1031pt" height="152pt"
 viewBox="0.00 0.00 1030.50 152.00" xmlns="http://www.w3.org/2000/svg" xmlns:xlink="http://www.w3.org/1999/xlink">
<g id="graph0" class="graph" transform="scale(1 1) rotate(0) translate(4 148)">
<title>G</title>
<polygon fill="white" stroke="none" points="-4,4 -4,-148 1026.5,-148 1026.5,4 -4,4"/>
<!-- data.aws_ami.amazon_linux -->
<g id="node1" class="node">
<title>data.aws_ami.amazon_linux</title>
<polygon fill="none" stroke="black" points="586.25,-36 398.5,-36 398.5,0 586.25,0 586.25,-36"/>
<text text-anchor="middle" x="492.38" y="-12.2" font-family="sans-serif" font-size="14.00">data.aws_ami.amazon_linux</text>
</g>
<!-- data.aws_iam_policy.aws_ssm_core_policy -->
<g id="node2" class="node">
<title>data.aws_iam_policy.aws_ssm_core_policy</title>
<polygon fill="none" stroke="black" points="320.12,-144 42.38,-144 42.38,-108 320.12,-108 320.12,-144"/>
<text text-anchor="middle" x="181.25" y="-120.2" font-family="sans-serif" font-size="14.00">data.aws_iam_policy.aws_ssm_core_policy</text>
</g>
<!-- data.aws_iam_policy_document.ec2_assume_role_policy -->
<g id="node3" class="node">
<title>data.aws_iam_policy_document.ec2_assume_role_policy</title>
<polygon fill="none" stroke="black" points="362.5,-90 0,-90 0,-54 362.5,-54 362.5,-90"/>
<text text-anchor="middle" x="181.25" y="-66.2" font-family="sans-serif" font-size="14.00">data.aws_iam_policy_document.ec2_assume_role_policy</text>
</g>
<!-- aws_iam_instance_profile.this -->
<g id="node4" class="node">
<title>aws_iam_instance_profile.this</title>
<polygon fill="none" stroke="black" points="841.5,-144 644.75,-144 644.75,-108 841.5,-108 841.5,-144"/>
<text text-anchor="middle" x="743.12" y="-120.2" font-family="sans-serif" font-size="14.00">aws_iam_instance_profile.this</text>
</g>
<!-- aws_iam_role.this -->
<g id="node5" class="node">
<title>aws_iam_role.this</title>
<polygon fill="none" stroke="black" points="554.75,-117 430,-117 430,-81 554.75,-81 554.75,-117"/>
<text text-anchor="middle" x="492.38" y="-93.2" font-family="sans-serif" font-size="14.00">aws_iam_role.this</text>
</g>
<!-- aws_iam_instance_profile.this&#45;&gt;aws_iam_role.this -->
<g id="edge1" class="edge">
<title>aws_iam_instance_profile.this&#45;&gt;aws_iam_role.this</title>
<path fill="none" stroke="black" d="M644.53,-115.41C618.56,-112.59 590.96,-109.59 566.54,-106.94"/>
<polygon fill="black" stroke="black" points="567.03,-103.47 556.71,-105.87 566.27,-110.43 567.03,-103.47"/>
</g>
<!-- aws_iam_role.this&#45;&gt;data.aws_iam_policy.aws_ssm_core_policy -->
<g id="edge2" class="edge">
<title>aws_iam_role.this&#45;&gt;data.aws_iam_policy.aws_ssm_core_policy</title>
<path fill="none" stroke="black" d="M429.56,-104.4C401.18,-106.88 366.18,-109.93 331.54,-112.96"/>
<polygon fill="black" stroke="black" points="331.48,-109.45 321.82,-113.81 332.09,-116.43 331.48,-109.45"/>
</g>
<!-- aws_iam_role.this&#45;&gt;data.aws_iam_policy_document.ec2_assume_role_policy -->
<g id="edge3" class="edge">
<title>aws_iam_role.this&#45;&gt;data.aws_iam_policy_document.ec2_assume_role_policy</title>
<path fill="none" stroke="black" d="M429.56,-93.6C412.91,-92.15 393.99,-90.49 374.19,-88.77"/>
<polygon fill="black" stroke="black" points="374.56,-85.28 364.29,-87.9 373.95,-92.26 374.56,-85.28"/>
</g>
<!-- aws_iam_role_policy_attachment.this -->
<g id="node6" class="node">
<title>aws_iam_role_policy_attachment.this</title>
<polygon fill="none" stroke="black" points="864,-90 622.25,-90 622.25,-54 864,-54 864,-90"/>
<text text-anchor="middle" x="743.12" y="-66.2" font-family="sans-serif" font-size="14.00">aws_iam_role_policy_attachment.this</text>
</g>
<!-- aws_iam_role_policy_attachment.this&#45;&gt;aws_iam_role.this -->
<g id="edge4" class="edge">
<title>aws_iam_role_policy_attachment.this&#45;&gt;aws_iam_role.this</title>
<path fill="none" stroke="black" d="M621.76,-85.07C602.84,-87.12 583.79,-89.19 566.38,-91.08"/>
<polygon fill="black" stroke="black" points="566.25,-87.57 556.69,-92.13 567.01,-94.53 566.25,-87.57"/>
</g>
<!-- aws_instance.this -->
<g id="node7" class="node">
<title>aws_instance.this</title>
<polygon fill="none" stroke="black" points="1022.5,-90 900,-90 900,-54 1022.5,-54 1022.5,-90"/>
<text text-anchor="middle" x="961.25" y="-66.2" font-family="sans-serif" font-size="14.00">aws_instance.this</text>
</g>
<!-- aws_instance.this&#45;&gt;aws_iam_instance_profile.this -->
<g id="edge5" class="edge">
<title>aws_instance.this&#45;&gt;aws_iam_instance_profile.this</title>
<path fill="none" stroke="black" d="M899.53,-89.55C887.78,-92.8 875.53,-96.09 864,-99 856.18,-100.98 848.05,-102.96 839.88,-104.9"/>
<polygon fill="black" stroke="black" points="839.15,-101.48 830.21,-107.17 840.75,-108.29 839.15,-101.48"/>
</g>
<!-- aws_instance.this&#45;&gt;aws_iam_role_policy_attachment.this -->
<g id="edge6" class="edge">
<title>aws_instance.this&#45;&gt;aws_iam_role_policy_attachment.this</title>
<path fill="none" stroke="black" d="M899.76,-72C892.03,-72 883.9,-72 875.57,-72"/>
<polygon fill="black" stroke="black" points="875.63,-68.5 865.63,-72 875.63,-75.5 875.63,-68.5"/>
</g>
<!-- aws_security_group.this -->
<g id="node8" class="node">
<title>aws_security_group.this</title>
<polygon fill="none" stroke="black" points="823.5,-36 662.75,-36 662.75,0 823.5,0 823.5,-36"/>
<text text-anchor="middle" x="743.12" y="-12.2" font-family="sans-serif" font-size="14.00">aws_security_group.this</text>
</g>
<!-- aws_instance.this&#45;&gt;aws_security_group.this -->
<g id="edge7" class="edge">
<title>aws_instance.this&#45;&gt;aws_security_group.this</title>
<path fill="none" stroke="black" d="M899.53,-54.45C887.78,-51.2 875.53,-47.91 864,-45 854.61,-42.63 844.78,-40.25 834.96,-37.93"/>
<polygon fill="black" stroke="black" points="835.9,-34.56 825.37,-35.7 834.32,-41.38 835.9,-34.56"/>
</g>
<!-- aws_security_group.this&#45;&gt;data.aws_ami.amazon_linux -->
<g id="edge8" class="edge">
<title>aws_security_group.this&#45;&gt;data.aws_ami.amazon_linux</title>
<path fill="none" stroke="black" d="M662.39,-18C641.82,-18 619.37,-18 597.75,-18"/>
<polygon fill="black" stroke="black" points="598.04,-14.5 588.04,-18 598.04,-21.5 598.04,-14.5"/>
</g>
</g>
</svg>
