<?xml version="1.0" encoding="UTF-8" standalone="no"?>
<!DOCTYPE svg PUBLIC "-//W3C//DTD SVG 1.1//EN"
 "http://www.w3.org/Graphics/SVG/1.1/DTD/svg11.dtd">
<!-- Generated by graphviz version 12.2.1 (20241206.2353)
 -->
<!-- Title: G Pages: 1 -->
<svg width="1219pt" height="206pt"
 viewBox="0.00 0.00 1218.75 206.00" xmlns="http://www.w3.org/2000/svg" xmlns:xlink="http://www.w3.org/1999/xlink">
<g id="graph0" class="graph" transform="scale(1 1) rotate(0) translate(4 202)">
<title>G</title>
<polygon fill="white" stroke="none" points="-4,4 -4,-202 1214.75,-202 1214.75,4 -4,4"/>
<!-- data.aws_ami.amazon_linux -->
<g id="node1" class="node">
<title>data.aws_ami.amazon_linux</title>
<polygon fill="none" stroke="black" points="974.25,-198 786.5,-198 786.5,-162 974.25,-162 974.25,-198"/>
<text text-anchor="middle" x="880.38" y="-174.2" font-family="sans-serif" font-size="14.00">data.aws_ami.amazon_linux</text>
</g>
<!-- data.aws_iam_policy.aws_ssm_core_policy -->
<g id="node2" class="node">
<title>data.aws_iam_policy.aws_ssm_core_policy</title>
<polygon fill="none" stroke="black" points="676.25,-90 398.5,-90 398.5,-54 676.25,-54 676.25,-90"/>
<text text-anchor="middle" x="537.38" y="-66.2" font-family="sans-serif" font-size="14.00">data.aws_iam_policy.aws_ssm_core_policy</text>
</g>
<!-- data.aws_iam_policy_document.ec2_assume_role_policy -->
<g id="node3" class="node">
<title>data.aws_iam_policy_document.ec2_assume_role_policy</title>
<polygon fill="none" stroke="black" points="362.5,-144 0,-144 0,-108 362.5,-108 362.5,-144"/>
<text text-anchor="middle" x="181.25" y="-120.2" font-family="sans-serif" font-size="14.00">data.aws_iam_policy_document.ec2_assume_role_policy</text>
</g>
<!-- aws_iam_instance_profile.instance_web -->
<g id="node4" class="node">
<title>aws_iam_instance_profile.instance_web</title>
<polygon fill="none" stroke="black" points="1009.5,-144 751.25,-144 751.25,-108 1009.5,-108 1009.5,-144"/>
<text text-anchor="middle" x="880.38" y="-120.2" font-family="sans-serif" font-size="14.00">aws_iam_instance_profile.instance_web</text>
</g>
<!-- aws_iam_role.instance_web -->
<g id="node5" class="node">
<title>aws_iam_role.instance_web</title>
<polygon fill="none" stroke="black" points="630.5,-144 444.25,-144 444.25,-108 630.5,-108 630.5,-144"/>
<text text-anchor="middle" x="537.38" y="-120.2" font-family="sans-serif" font-size="14.00">aws_iam_role.instance_web</text>
</g>
<!-- aws_iam_instance_profile.instance_web&#45;&gt;aws_iam_role.instance_web -->
<g id="edge1" class="edge">
<title>aws_iam_instance_profile.instance_web&#45;&gt;aws_iam_role.instance_web</title>
<path fill="none" stroke="black" d="M750.94,-126C715.07,-126 676.54,-126 642.28,-126"/>
<polygon fill="black" stroke="black" points="642.34,-122.5 632.34,-126 642.34,-129.5 642.34,-122.5"/>
</g>
<!-- aws_iam_role.instance_web&#45;&gt;data.aws_iam_policy_document.ec2_assume_role_policy -->
<g id="edge2" class="edge">
<title>aws_iam_role.instance_web&#45;&gt;data.aws_iam_policy_document.ec2_assume_role_policy</title>
<path fill="none" stroke="black" d="M443.8,-126C422.21,-126 398.44,-126 374.3,-126"/>
<polygon fill="black" stroke="black" points="374.32,-122.5 364.32,-126 374.32,-129.5 374.32,-122.5"/>
</g>
<!-- aws_iam_role_policy_attachment.instance_web_ssm -->
<g id="node6" class="node">
<title>aws_iam_role_policy_attachment.instance_web_ssm</title>
<polygon fill="none" stroke="black" points="1048.5,-90 712.25,-90 712.25,-54 1048.5,-54 1048.5,-90"/>
<text text-anchor="middle" x="880.38" y="-66.2" font-family="sans-serif" font-size="14.00">aws_iam_role_policy_attachment.instance_web_ssm</text>
</g>
<!-- aws_iam_role_policy_attachment.instance_web_ssm&#45;&gt;data.aws_iam_policy.aws_ssm_core_policy -->
<g id="edge3" class="edge">
<title>aws_iam_role_policy_attachment.instance_web_ssm&#45;&gt;data.aws_iam_policy.aws_ssm_core_policy</title>
<path fill="none" stroke="black" d="M711.87,-72C703.95,-72 696.02,-72 688.15,-72"/>
<polygon fill="black" stroke="black" points="688.18,-68.5 678.18,-72 688.18,-75.5 688.18,-68.5"/>
</g>
<!-- aws_iam_role_policy_attachment.instance_web_ssm&#45;&gt;aws_iam_role.instance_web -->
<g id="edge4" class="edge">
<title>aws_iam_role_policy_attachment.instance_web_ssm&#45;&gt;aws_iam_role.instance_web</title>
<path fill="none" stroke="black" d="M762.98,-90.43C723.73,-96.65 680.21,-103.54 642.02,-109.59"/>
<polygon fill="black" stroke="black" points="641.7,-106.09 632.37,-111.12 642.79,-113.01 641.7,-106.09"/>
</g>
<!-- aws_instance.web -->
<g id="node7" class="node">
<title>aws_instance.web</title>
<polygon fill="none" stroke="black" points="1210.75,-117 1084.5,-117 1084.5,-81 1210.75,-81 1210.75,-117"/>
<text text-anchor="middle" x="1147.62" y="-93.2" font-family="sans-serif" font-size="14.00">aws_instance.web</text>
</g>
<!-- aws_instance.web&#45;&gt;data.aws_ami.amazon_linux -->
<g id="edge5" class="edge">
<title>aws_instance.web&#45;&gt;data.aws_ami.amazon_linux</title>
<path fill="none" stroke="black" d="M1119.47,-117.27C1100.4,-129.25 1073.87,-144.26 1048.5,-153 1028.71,-159.81 1007,-164.93 985.97,-168.76"/>
<polygon fill="black" stroke="black" points="985.47,-165.29 976.21,-170.44 986.66,-172.19 985.47,-165.29"/>
</g>
<!-- aws_instance.web&#45;&gt;aws_iam_instance_profile.instance_web -->
<g id="edge6" class="edge">
<title>aws_instance.web&#45;&gt;aws_iam_instance_profile.instance_web</title>
<path fill="none" stroke="black" d="M1084.1,-105.36C1064.97,-107.31 1043.11,-109.54 1020.99,-111.79"/>
<polygon fill="black" stroke="black" points="1020.87,-108.28 1011.27,-112.78 1021.58,-115.25 1020.87,-108.28"/>
</g>
<!-- aws_instance.web&#45;&gt;aws_iam_role_policy_attachment.instance_web_ssm -->
<g id="edge7" class="edge">
<title>aws_instance.web&#45;&gt;aws_iam_role_policy_attachment.instance_web_ssm</title>
<path fill="none" stroke="black" d="M1084.1,-92.64C1076.43,-91.86 1068.33,-91.03 1059.94,-90.18"/>
<polygon fill="black" stroke="black" points="1060.58,-86.72 1050.27,-89.19 1059.87,-93.69 1060.58,-86.72"/>
</g>
<!-- aws_security_group.instance_web -->
<g id="node8" class="node">
<title>aws_security_group.instance_web</title>
<polygon fill="none" stroke="black" points="991.5,-36 769.25,-36 769.25,0 991.5,0 991.5,-36"/>
<text text-anchor="middle" x="880.38" y="-12.2" font-family="sans-serif" font-size="14.00">aws_security_group.instance_web</text>
</g>
<!-- aws_instance.web&#45;&gt;aws_security_group.instance_web -->
<g id="edge8" class="edge">
<title>aws_instance.web&#45;&gt;aws_security_group.instance_web</title>
<path fill="none" stroke="black" d="M1119.47,-80.73C1100.4,-68.75 1073.87,-53.74 1048.5,-45 1034.08,-40.03 1018.63,-35.97 1003.17,-32.65"/>
<polygon fill="black" stroke="black" points="1003.91,-29.23 993.41,-30.66 1002.51,-36.09 1003.91,-29.23"/>
</g>
</g>
</svg>
