<svg width="100%" viewBox="0 0 820 330" xmlns="http://www.w3.org/2000/svg">
  <!-- Header row -->
  <rect x="44"  y="30" width="120" height="32" rx="5" fill="#F1EFE8" stroke="#B4B2A9" stroke-width="0.8"/>
  <rect x="172" y="30" width="148" height="32" rx="5" fill="#EEEDFE" stroke="#534AB7" stroke-width="0.8"/>
  <rect x="328" y="30" width="148" height="32" rx="5" fill="#EEEDFE" stroke="#534AB7" stroke-width="0.8"/>
  <rect x="484" y="30" width="148" height="32" rx="5" fill="#EEEDFE" stroke="#534AB7" stroke-width="0.8"/>
  <rect x="640" y="30" width="136" height="32" rx="5" fill="#EEEDFE" stroke="#534AB7" stroke-width="0.8"/>

  <text x="104"  y="51" font-size="11" font-weight="bold" fill="#444441" text-anchor="middle" font-family="Arial, sans-serif">구성 요소</text>
  <text x="246"  y="44" font-size="10" font-weight="bold" fill="#3C3489" text-anchor="middle" font-family="Arial, sans-serif">Layer 0</text>
  <text x="246"  y="56" font-size="8" font-weight="bold" fill="#3C3489" text-anchor="middle" font-family="Arial, sans-serif">Fundamentals</text>
  <text x="402"  y="44" font-size="10" font-weight="bold" fill="#3C3489" text-anchor="middle" font-family="Arial, sans-serif">Layer 1</text>
  <text x="402"  y="56" font-size="8" font-weight="bold" fill="#3C3489" text-anchor="middle" font-family="Arial, sans-serif">Terraform Core</text>
  <text x="558"  y="44" font-size="10" font-weight="bold" fill="#3C3489" text-anchor="middle" font-family="Arial, sans-serif">Layer 1 &amp; 2</text>
  <text x="558"  y="56" font-size="8" font-weight="bold" fill="#3C3489" text-anchor="middle" font-family="Arial, sans-serif">AWS IaC Core</text>
  <text x="708"  y="44" font-size="10" font-weight="bold" fill="#3C3489" text-anchor="middle" font-family="Arial, sans-serif">Layer 2</text>
  <text x="708"  y="56" font-size="8" font-weight="bold" fill="#3C3489" text-anchor="middle" font-family="Arial, sans-serif">(GCP/Azure) IaC with Terraform</text>

  <!-- Row 1: CLI -->
  <rect x="44"  y="72" width="120" height="36" rx="4" fill="#F1EFE8" stroke="#B4B2A9" stroke-width="0.5"/>
  <rect x="172" y="72" width="148" height="36" rx="4" fill="#FCEBEB" stroke="#A32D2D" stroke-width="0.5"/>
  <rect x="328" y="72" width="148" height="36" rx="4" fill="#EAF3DE" stroke="#3B6D11" stroke-width="0.5"/>
  <rect x="484" y="72" width="148" height="36" rx="4" fill="#EAF3DE" stroke="#3B6D11" stroke-width="0.5"/>
  <rect x="640" y="72" width="136" height="36" rx="4" fill="#EAF3DE" stroke="#3B6D11" stroke-width="0.5"/>
  <text x="104" y="95" font-size="11" fill="#444441" text-anchor="middle" font-family="Arial, sans-serif">CLI</text>
  <text x="246" y="88" font-size="10" fill="#791F1F" text-anchor="middle" font-family="Arial, sans-serif">다루지 않음</text>
  <text x="246" y="100" font-size="9"  fill="#A32D2D" text-anchor="middle" font-family="Arial, sans-serif">콘솔 실습 중심</text>
  <text x="402" y="88" font-size="10" fill="#27500A" text-anchor="middle" font-family="Arial, sans-serif">AWS CLI</text>
  <text x="402" y="100" font-size="9"  fill="#3B6D11" text-anchor="middle" font-family="Arial, sans-serif">실습 전반에 녹임</text>
  <text x="558" y="88" font-size="10" fill="#27500A" text-anchor="middle" font-family="Arial, sans-serif">AWS CLI</text>
  <text x="558" y="100" font-size="9"  fill="#3B6D11" text-anchor="middle" font-family="Arial, sans-serif">별도 챕터 → 실습 전반에 녹임</text>
  <text x="708" y="88" font-size="10" fill="#27500A" text-anchor="middle" font-family="Arial, sans-serif">각 플랫폼 CLI</text>
  <text x="708" y="100" font-size="9"  fill="#3B6D11" text-anchor="middle" font-family="Arial, sans-serif">별도 챕터 → 실습 전반에 녹임</text>

  <!-- Row 2: SDK -->
  <rect x="44"  y="118" width="120" height="36" rx="4" fill="#F1EFE8" stroke="#B4B2A9" stroke-width="0.5"/>
  <rect x="172" y="118" width="148" height="36" rx="4" fill="#FCEBEB" stroke="#A32D2D" stroke-width="0.5"/>
  <rect x="328" y="118" width="148" height="36" rx="4" fill="#F1EFE8" stroke="#B4B2A9" stroke-width="0.5"/>
  <rect x="484" y="118" width="148" height="36" rx="4" fill="#EAF3DE" stroke="#3B6D11" stroke-width="0.5"/>
  <rect x="640" y="118" width="136" height="36" rx="4" fill="#EAF3DE" stroke="#3B6D11" stroke-width="0.5"/>
  <text x="104" y="141" font-size="11" fill="#444441" text-anchor="middle" font-family="Arial, sans-serif">SDK 예제</text>
  <text x="246" y="134" font-size="10" fill="#791F1F" text-anchor="middle" font-family="Arial, sans-serif">다루지 않음</text>
  <text x="246" y="146" font-size="9"  fill="#A32D2D" text-anchor="middle" font-family="Arial, sans-serif">콘솔 실습 중심</text>
  <text x="402" y="134" font-size="10" fill="#888780" text-anchor="middle" font-family="Arial, sans-serif">해당 없음</text>
  <text x="402" y="146" font-size="9"  fill="#888780" text-anchor="middle" font-family="Arial, sans-serif">도구 집중</text>
  <text x="558" y="134" font-size="10" fill="#27500A" text-anchor="middle" font-family="Arial, sans-serif">AWS SDK 예제</text>
  <text x="558" y="146" font-size="9"  fill="#3B6D11" text-anchor="middle" font-family="Arial, sans-serif">유틸리티 수준으로 확인</text>
  <text x="708" y="134" font-size="10" fill="#27500A" text-anchor="middle" font-family="Arial, sans-serif">각 플랫폼 SDK</text>
  <text x="708" y="146" font-size="9"  fill="#3B6D11" text-anchor="middle" font-family="Arial, sans-serif">유틸리티 수준으로 확인</text>

  <!-- Row 3: Provisioning -->
  <rect x="44"  y="164" width="120" height="36" rx="4" fill="#F1EFE8" stroke="#B4B2A9" stroke-width="0.5"/>
  <rect x="172" y="164" width="148" height="36" rx="4" fill="#FCEBEB" stroke="#A32D2D" stroke-width="0.5"/>
  <rect x="328" y="164" width="148" height="36" rx="4" fill="#EAF3DE" stroke="#3B6D11" stroke-width="0.5"/>
  <rect x="484" y="164" width="148" height="36" rx="4" fill="#EAF3DE" stroke="#3B6D11" stroke-width="0.5"/>
  <rect x="640" y="164" width="136" height="36" rx="4" fill="#EAF3DE" stroke="#3B6D11" stroke-width="0.5"/>
  <text x="104" y="187" font-size="11" fill="#444441" text-anchor="middle" font-family="Arial, sans-serif">프로비저닝 도구</text>
  <text x="246" y="180" font-size="10" fill="#791F1F" text-anchor="middle" font-family="Arial, sans-serif">다루지 않음</text>
  <text x="246" y="192" font-size="9"  fill="#A32D2D" text-anchor="middle" font-family="Arial, sans-serif">콘솔 실습 중심</text>
  <text x="402" y="180" font-size="10" fill="#27500A" text-anchor="middle" font-family="Arial, sans-serif">Terraform</text>
  <text x="402" y="192" font-size="9"  fill="#3B6D11" text-anchor="middle" font-family="Arial, sans-serif">깊게 · 메인</text>
  <text x="558" y="180" font-size="10" fill="#27500A" text-anchor="middle" font-family="Arial, sans-serif">CloudFormation</text>
  <text x="558" y="192" font-size="9"  fill="#3B6D11" text-anchor="middle" font-family="Arial, sans-serif">깊게 · 메인</text>
  <text x="708" y="180" font-size="10" fill="#27500A" text-anchor="middle" font-family="Arial, sans-serif">Terraform</text>
  <text x="708" y="192" font-size="9"  fill="#3B6D11" text-anchor="middle" font-family="Arial, sans-serif">기본 수준만</text>

  <!-- Row 4: Cloud concepts -->
  <rect x="44"  y="210" width="120" height="36" rx="4" fill="#F1EFE8" stroke="#B4B2A9" stroke-width="0.5"/>
  <rect x="172" y="210" width="148" height="36" rx="4" fill="#EAF3DE" stroke="#3B6D11" stroke-width="0.5"/>
  <rect x="328" y="210" width="148" height="36" rx="4" fill="#FCEBEB" stroke="#A32D2D" stroke-width="0.5"/>
  <rect x="484" y="210" width="148" height="36" rx="4" fill="#FCEBEB" stroke="#A32D2D" stroke-width="0.5"/>
  <rect x="640" y="210" width="136" height="36" rx="4" fill="#FCEBEB" stroke="#A32D2D" stroke-width="0.5"/>
  <text x="104" y="233" font-size="11" fill="#444441" text-anchor="middle" font-family="Arial, sans-serif">클라우드 개념</text>
  <text x="246" y="226" font-size="10" fill="#27500A" text-anchor="middle" font-family="Arial, sans-serif">핵심 담당</text>
  <text x="246" y="238" font-size="9"  fill="#3B6D11" text-anchor="middle" font-family="Arial, sans-serif">리소스 연결 · CS 기초 구현</text>
  <text x="402" y="226" font-size="10" fill="#791F1F" text-anchor="middle" font-family="Arial, sans-serif">다루지 않음</text>
  <text x="402" y="238" font-size="9"  fill="#A32D2D" text-anchor="middle" font-family="Arial, sans-serif">Fundamentals 가정</text>
  <text x="558" y="226" font-size="10" fill="#791F1F" text-anchor="middle" font-family="Arial, sans-serif">다루지 않음</text>
  <text x="558" y="238" font-size="9"  fill="#A32D2D" text-anchor="middle" font-family="Arial, sans-serif">Fundamentals 가정</text>
  <text x="708" y="226" font-size="10" fill="#791F1F" text-anchor="middle" font-family="Arial, sans-serif">다루지 않음</text>
  <text x="708" y="238" font-size="9"  fill="#A32D2D" text-anchor="middle" font-family="Arial, sans-serif">Fundamentals 가정</text>

  <!-- Row 5: Design rationale -->
  <rect x="44"  y="256" width="120" height="36" rx="4" fill="#F1EFE8" stroke="#B4B2A9" stroke-width="0.5"/>
  <rect x="172" y="256" width="148" height="36" rx="4" fill="#FCEBEB" stroke="#A32D2D" stroke-width="0.5"/>
  <rect x="328" y="256" width="148" height="36" rx="4" fill="#EAF3DE" stroke="#3B6D11" stroke-width="0.5"/>
  <rect x="484" y="256" width="148" height="36" rx="4" fill="#EAF3DE" stroke="#3B6D11" stroke-width="0.5"/>
  <rect x="640" y="256" width="136" height="36" rx="4" fill="#EAF3DE" stroke="#3B6D11" stroke-width="0.5"/>
  <text x="104" y="279" font-size="11" fill="#444441" text-anchor="middle" font-family="Arial, sans-serif">설계 당위</text>
  <text x="246" y="272" font-size="10" fill="#791F1F" text-anchor="middle" font-family="Arial, sans-serif">다루지 않음</text>
  <text x="246" y="284" font-size="9"  fill="#A32D2D" text-anchor="middle" font-family="Arial, sans-serif">Architecture &amp; Design 담당</text>
  <text x="402" y="272" font-size="10" fill="#27500A" text-anchor="middle" font-family="Arial, sans-serif">최소화	</text>
  <text x="402" y="284" font-size="9"  fill="#3B6D11" text-anchor="middle" font-family="Arial, sans-serif">Architecture &amp; Design 담당</text>
  <text x="558" y="272" font-size="10" fill="#27500A" text-anchor="middle" font-family="Arial, sans-serif">최소화</text>
  <text x="558" y="284" font-size="9"  fill="#3B6D11" text-anchor="middle" font-family="Arial, sans-serif">Architecture &amp; Design 담당</text>
  <text x="708" y="272" font-size="10" fill="#27500A" text-anchor="middle" font-family="Arial, sans-serif">최소화</text>
  <text x="708" y="284" font-size="9"  fill="#3B6D11" text-anchor="middle" font-family="Arial, sans-serif">Architecture &amp; Design 담당</text>


  <!-- Legend -->
  <rect x="44"  y="302" width="14" height="14" rx="3" fill="#EAF3DE" stroke="#3B6D11" stroke-width="0.8"/>
  <text x="64"  y="314" font-size="11" fill="#444441" font-family="Arial, sans-serif">다룸</text>
  <rect x="120" y="302" width="14" height="14" rx="3" fill="#FCEBEB" stroke="#A32D2D" stroke-width="0.8"/>
  <text x="140" y="314" font-size="11" fill="#444441" font-family="Arial, sans-serif">다루지 않음 / 다른 시리즈로 안내</text>
  <rect x="330" y="302" width="14" height="14" rx="3" fill="#F1EFE8" stroke="#B4B2A9" stroke-width="0.8"/>
  <text x="350" y="314" font-size="11" fill="#444441" font-family="Arial, sans-serif">해당 없음</text>
</svg>
